<?xml version="1.0" standalone="no"?>
<!DOCTYPE svg PUBLIC "-//W3C//DTD SVG 20010904//EN"
 "http://www.w3.org/TR/2001/REC-SVG-20010904/DTD/svg10.dtd">
<svg version="1.0" xmlns="http://www.w3.org/2000/svg"
 width="375.000000pt" height="356.000000pt" viewBox="0 0 375.000000 356.000000"
 preserveAspectRatio="xMidYMid meet">

<g transform="translate(0.000000,356.000000) scale(0.100000,-0.100000)" stroke="none">
<path d="M2345 3485 c-306 -27 -553 -93 -783 -209 -198 -100 -339 -246 -411
-428 -50 -127 -122 -460 -186 -868 -9 -58 -32 -186 -50 -285 -42 -220 -146
-851 -152 -920 -7 -73 2 -77 156 -83 162 -6 154 -16 175 205 19 203 51 406
132 848 147 801 180 951 226 1045 62 123 158 197 377 288 200 83 457 125 756
124 292 -1 439 -30 586 -116 89 -52 151 -117 187 -194 25 -53 27 -65 25 -177
-2 -66 -9 -149 -17 -185 -9 -36 -31 -157 -51 -270 -20 -113 -51 -286 -70 -385
-19 -99 -41 -223 -50 -275 -8 -52 -28 -158 -45 -235 -16 -77 -40 -196 -54
-265 -14 -69 -39 -190 -56 -270 -41 -189 -43 -214 -11 -218 49 -7 253 236 329
393 62 127 74 179 166 720 30 176 73 417 96 535 22 118 46 262 52 320 13 129
5 318 -16 386 -45 145 -209 307 -403 400 -245 116 -526 153 -908 119z"/>
<path d="M1975 3015 c-22 -7 -59 -18 -82 -24 -40 -11 -62 -38 -48 -60 8 -14
94 -28 250 -42 151 -12 205 -27 265 -70 56 -41 64 -75 57 -253 -4 -109 -14
-192 -35 -296 -105 -516 -114 -564 -147 -775 -56 -365 -89 -531 -125 -638 -11
-31 -20 -63 -20 -71 0 -8 -28 -51 -62 -97 -71 -93 -187 -185 -284 -225 -55
-23 -166 -47 -364 -80 -126 -20 -342 -28 -433 -15 -50 7 -106 24 -155 47 -42
20 -99 43 -127 51 -74 22 -179 104 -207 161 -21 44 -23 58 -22 217 1 131 6
193 22 270 12 55 35 183 52 285 45 278 73 422 101 520 5 19 18 85 29 145 20
113 33 182 68 365 75 383 80 436 46 470 -19 19 -25 20 -62 11 -51 -14 -137
-92 -196 -175 -85 -122 -133 -251 -182 -494 -13 -67 -38 -186 -55 -265 -17
-78 -39 -182 -49 -232 -10 -49 -34 -169 -54 -265 -20 -96 -41 -197 -47 -225
-59 -290 -80 -517 -59 -631 15 -83 57 -186 98 -243 31 -43 134 -132 194 -169
155 -94 500 -151 843 -139 288 11 422 30 650 92 335 92 500 233 596 512 65
189 201 871 259 1298 17 121 37 261 45 310 51 326 59 461 31 542 -24 69 -54
98 -151 145 -70 33 -95 40 -185 48 -153 14 -407 11 -455 -5z"/>
</g>
</svg>
